<svg width="256" height="256" viewBox="0 0 256 256" fill="none" xmlns="http://www.w3.org/2000/svg">
<rect width="256" height="256" rx="10" fill="white"/>
<path d="M91.8176 222H52.3827C51.2688 222 50.1657 221.781 49.1366 221.355C48.1074 220.928 47.1723 220.303 46.3846 219.516C45.597 218.728 44.9721 217.793 44.5458 216.764C44.1196 215.735 43.9001 214.632 43.9001 213.518V125.18L73.6668 116.407L100.3 125.18V213.518C100.3 214.632 100.081 215.735 99.6544 216.764C99.2281 217.793 98.6033 218.728 97.8156 219.516C97.028 220.303 96.0929 220.928 95.0637 221.355C94.0346 221.781 92.9315 222 91.8176 222V222Z" fill="#185C37"/>
<path d="M152.94 34H204.339C206.662 34 208.891 34.923 210.534 36.566C212.177 38.2089 213.1 40.4373 213.1 42.7608V145.559C213.1 147.883 212.177 150.111 210.534 151.754C208.891 153.397 206.662 154.32 204.339 154.32H152.94L142.913 90.0867L152.94 34Z" fill="#33C481"/>
<path d="M43.9001 42.7608V128H100.3V188.16H147.939C150.263 188.16 152.491 187.237 154.134 185.594C155.777 183.951 156.7 181.723 156.7 179.399V34H52.6609C50.3374 34 48.1091 34.923 46.4661 36.566C44.8232 38.2089 43.9001 40.4373 43.9001 42.7608V42.7608Z" fill="#107C41"/>
<path d="M100.3 34H156.7V97.92H100.3V34Z" fill="#21A366"/>
</svg>
